<svg width="24" height="24" viewBox="0 0 24 24" fill="none" xmlns="http://www.w3.org/2000/svg">
<path d="M12 18.5H2V15.7C4.59869 14.2521 7.52519 13.4947 10.5 13.5C12.237 13.5 13.916 13.753 15.5 14.225M23 18.5H14M18.5 14V23M6.5 6.25C6.5 7.37717 6.94777 8.45817 7.7448 9.2552C8.54183 10.0522 9.62283 10.5 10.75 10.5C11.8772 10.5 12.9582 10.0522 13.7552 9.2552C14.5522 8.45817 15 7.37717 15 6.25C15 5.12283 14.5522 4.04183 13.7552 3.2448C12.9582 2.44777 11.8772 2 10.75 2C9.62283 2 8.54183 2.44777 7.7448 3.2448C6.94777 4.04183 6.5 5.12283 6.5 6.25Z" stroke="white" stroke-width="1.5"/>
</svg>
