<svg width="280" height="56" viewBox="0 0 280 56" fill="none" xmlns="http://www.w3.org/2000/svg">
<g clip-path="url(#clip0_0_2828)">
<path d="M50.75 44.8496C50.75 50.524 39.5848 55.125 25.814 55.125C12.0432 55.125 0.875 50.524 0.875 44.8496C0.875 44.7599 0.877961 44.6703 0.880922 44.5865C1.2303 49.5314 12.2564 53.5016 25.811 53.5016C39.3657 53.5016 50.3917 49.5314 50.7411 44.5865C50.747 44.6732 50.75 44.7629 50.75 44.8496Z" fill="white"/>
<path d="M50.7455 44.5836V44.5866C50.3961 49.5315 39.37 53.5017 25.8154 53.5017C12.2607 53.5017 1.23464 49.5315 0.885265 44.5866V44.5836C0.982972 43.0231 1.92451 41.5492 3.52632 40.2367C4.15697 39.7763 4.89422 39.3398 5.72028 38.9272C4.16585 40.0603 3.29241 41.3518 3.29241 42.7151C3.29241 47.3491 13.377 51.104 25.8154 51.104C38.2538 51.104 48.3383 47.3491 48.3383 42.7151C48.3383 41.3518 47.4619 40.0603 45.9104 38.9272C46.7395 39.3368 47.4738 39.7763 48.1044 40.2367C49.7062 41.5492 50.6448 43.0231 50.7455 44.5836Z" fill="white"/>
<path d="M44.3463 41.4385C44.3463 45.6569 36.0501 49.0771 25.8116 49.0771C15.579 49.0771 7.27686 45.6599 7.27686 41.4385C7.27686 41.3728 7.27982 41.307 7.28278 41.2412C7.53741 44.9185 15.7359 47.8692 25.8086 47.8692C35.8873 47.8692 44.0798 44.9215 44.3345 41.2412C44.3433 41.31 44.3463 41.3757 44.3463 41.4385Z" fill="white"/>
<path d="M44.3472 41.0642C44.3472 41.121 44.3443 41.1808 44.3413 41.2376C44.0867 44.9149 35.8911 47.8656 25.8155 47.8656C15.7428 47.8656 7.54424 44.9179 7.28961 41.2376C7.28665 41.1808 7.28369 41.121 7.28369 41.0642C7.28369 40.1195 7.81368 39.2136 8.76706 38.3975C8.73449 38.4423 8.70488 38.4872 8.67528 38.532C8.35551 39.0253 8.18674 39.5425 8.18674 40.0746C8.18674 43.7011 16.0803 46.6399 25.8184 46.6399C35.5566 46.6399 43.4501 43.7011 43.4501 40.0746C43.4501 39.5425 43.2813 39.0253 42.9616 38.532C42.932 38.4872 42.9053 38.4423 42.8698 38.3975C43.8172 39.2166 44.3472 40.1195 44.3472 41.0642Z" fill="white"/>
<path d="M19.616 15.6438C16.7203 18.49 15.6011 20.6903 15.4324 22.2838C14.3665 32.3649 41.9495 24.7742 31.8738 9.28785C33.4105 28.1883 14.1414 26.6696 21.7123 17.3419C23.092 15.6438 33.9997 9.32671 30.1743 5.23987C33.9641 9.28785 36.7325 16.2238 34.2395 21.5484C33.5022 23.1239 31.8353 25.3542 27.6665 27.2556C23.7375 29.0494 11.1717 31.1092 12.8239 36.5025C12.8239 36.5025 4.86816 24.3467 16.6048 13.7843C26.9263 4.49844 25.3541 0.875 25.3541 0.875C25.3541 0.875 29.2091 6.22048 19.616 15.6438Z" fill="white"/>
<path d="M25.3561 0.875C25.3561 0.875 26.4812 5.33853 21.8386 10.7079C17.9244 15.2312 11.3099 21.8413 11.2744 30.018C11.2596 33.5458 12.8288 36.5025 12.8288 36.5025C12.8288 36.5025 7.35724 28.7653 11.8044 19.9758C16.2515 11.1863 24.9475 8.54343 25.3561 0.875Z" fill="white"/>
<path d="M25.9826 30.5984C5.6921 37.8841 18.8174 42.832 18.8263 42.7901C18.8263 42.7901 12.0727 38.2937 24.7154 34.6344C36.0109 31.3667 42.3352 25.7432 38.1368 17.2437C37.7607 20.2004 37.1301 26.5952 25.9826 30.5984Z" fill="white"/>
<path d="M41.1511 24.6487C40.0467 30.4127 36.0673 33.4233 28.7038 35.2978C20.6652 37.3457 13.2572 38.8375 18.8265 42.7898C13.0943 38.7209 44.7307 40.2426 41.1511 24.6487Z" fill="white"/>
<path d="M41.151 24.6487C41.151 24.6487 44.7691 38.1678 30.5365 43.1964C28.0316 44.0813 25.3313 44.5328 22.1929 43.5701C22.1929 43.5701 28.4668 43.6747 33.8111 39.573C34.9303 38.7119 42.4834 32.3679 41.151 24.6487Z" fill="white"/>
<path d="M30.1752 5.23975C30.1752 5.23975 33.2781 7.81383 27.9575 12.9082C23.5015 17.1774 21.2217 19.6887 21.6658 21.8203C22.1573 24.1821 24.5526 23.9848 26.03 23.3839C26.03 23.3839 22.8116 24.9594 20.9049 23.4108C18.1661 21.1865 21.7191 16.8904 23.8894 15.1235C26.036 13.3746 32.5586 8.90803 30.1752 5.23975Z" fill="white"/>
<path d="M38.1392 17.2437C38.1392 17.2437 37.6417 20.7445 36.6706 22.5503C35.6639 24.4248 33.1443 27.4891 28.3981 29.6387C23.6756 31.7793 12.1491 34.2756 14.9678 39.8633C14.9678 39.8633 12.3623 36.0096 26.3581 31.4235C35.2524 28.5086 38.3287 22.4038 38.1392 17.2437Z" fill="white"/>
<path d="M18.8271 42.7896C18.8271 42.7896 14.072 40.1168 25.3823 37.749C38.4129 35.0195 40.3907 31.0463 40.3907 31.0463C40.3907 31.0463 36.6986 37.4919 26.7028 39.4262C17.9743 41.1124 18.8271 42.7896 18.8271 42.7896Z" fill="white"/>
<path d="M22.1895 43.5699C22.1895 43.5699 37.1179 39.5966 40.3896 31.0463C40.3896 31.0433 37.636 43.256 22.1895 43.5699Z" fill="white"/>
<path d="M30.1744 5.23975C30.1744 5.23975 37.384 12.6271 34.5979 20.5945C31.0745 30.6666 14.1742 27.7428 12.827 36.5024C12.827 36.5024 10.9173 32.009 21.2298 28.6456C34.0324 24.4691 34.512 18.2297 34.663 16.6602C34.6838 16.43 34.6778 16.2207 34.663 15.9995C34.5801 14.8156 34.4499 10.935 30.1744 5.23975Z" fill="white"/>
<path d="M68.8078 44.5156H72.7453V45.4453H68.8078V44.5156ZM68.9062 47.9172H73.3687V48.8688H67.8125V41.2125H73.2156V42.1641H68.9062V47.9172Z" fill="white"/>
<path d="M77.546 48.8688V41.2125H78.4429L83.507 47.5016H83.0366V41.2125H84.1304V48.8688H83.2335L78.1695 42.5797H78.6398V48.8688H77.546Z" fill="white"/>
<path d="M89.8236 44.5156H93.7611V45.4453H89.8236V44.5156ZM89.9221 47.9172H94.3846V48.8688H88.8283V41.2125H94.2314V42.1641H89.9221V47.9172Z" fill="white"/>
<path d="M98.5618 48.8688V41.2125H101.548C102.219 41.2125 102.791 41.3182 103.265 41.5297C103.739 41.7411 104.103 42.0474 104.359 42.4484C104.614 42.8495 104.742 43.3271 104.742 43.8812C104.742 44.4354 104.614 44.913 104.359 45.3141C104.103 45.7078 103.739 46.0104 103.265 46.2219C102.791 46.4333 102.219 46.5391 101.548 46.5391H99.1634L99.6556 46.0359V48.8688H98.5618ZM103.681 48.8688L101.734 46.0906H102.904L104.873 48.8688H103.681ZM99.6556 46.1453L99.1634 45.6094H101.515C102.215 45.6094 102.744 45.4599 103.101 45.1609C103.465 44.8547 103.648 44.4281 103.648 43.8812C103.648 43.3344 103.465 42.9115 103.101 42.6125C102.744 42.3135 102.215 42.1641 101.515 42.1641H99.1634L99.6556 41.6172V46.1453Z" fill="white"/>
<path d="M112.371 48.9562C111.78 48.9562 111.237 48.8615 110.741 48.6719C110.246 48.475 109.815 48.2016 109.451 47.8516C109.086 47.4943 108.802 47.0786 108.598 46.6047C108.393 46.1307 108.291 45.6094 108.291 45.0406C108.291 44.4719 108.393 43.9505 108.598 43.4766C108.802 43.0026 109.086 42.5906 109.451 42.2406C109.823 41.8833 110.257 41.6099 110.752 41.4203C111.248 41.2234 111.795 41.125 112.393 41.125C112.998 41.125 113.552 41.2234 114.055 41.4203C114.559 41.6172 114.985 41.9125 115.335 42.3062L114.657 42.9844C114.343 42.6781 114.001 42.4557 113.629 42.3172C113.264 42.1714 112.867 42.0984 112.437 42.0984C111.999 42.0984 111.591 42.1714 111.212 42.3172C110.84 42.463 110.515 42.6672 110.238 42.9297C109.968 43.1922 109.757 43.5057 109.604 43.8703C109.458 44.2276 109.385 44.6177 109.385 45.0406C109.385 45.4563 109.458 45.8464 109.604 46.2109C109.757 46.5682 109.968 46.8818 110.238 47.1516C110.515 47.4141 110.84 47.6182 111.212 47.7641C111.584 47.9099 111.988 47.9828 112.426 47.9828C112.834 47.9828 113.224 47.9208 113.596 47.7969C113.975 47.6656 114.325 47.4505 114.646 47.1516L115.27 47.9828C114.89 48.3036 114.446 48.5479 113.935 48.7156C113.432 48.876 112.911 48.9562 112.371 48.9562ZM114.22 47.8406V44.9969H115.27V47.9828L114.22 47.8406Z" fill="white"/>
<path d="M121.618 48.8688V45.9375L121.87 46.6156L118.578 41.2125H119.748L122.515 45.7734H121.881L124.659 41.2125H125.742L122.461 46.6156L122.701 45.9375V48.8688H121.618Z" fill="white"/>
<path d="M136.625 48.9562C136.107 48.9562 135.648 48.8724 135.247 48.7047C134.846 48.537 134.528 48.3036 134.295 48.0047C134.062 47.7057 133.945 47.3594 133.945 46.9656C133.945 46.6229 134.022 46.3094 134.175 46.025C134.328 45.7406 134.572 45.4672 134.908 45.2047C135.243 44.9349 135.684 44.6578 136.231 44.3734C136.676 44.1401 137.022 43.9359 137.27 43.7609C137.525 43.5859 137.704 43.4219 137.806 43.2687C137.915 43.1083 137.97 42.937 137.97 42.7547C137.97 42.5068 137.883 42.3062 137.708 42.1531C137.533 41.9927 137.281 41.9125 136.953 41.9125C136.61 41.9125 136.34 42 136.144 42.175C135.954 42.3427 135.859 42.5651 135.859 42.8422C135.859 42.9807 135.881 43.1156 135.925 43.2469C135.976 43.3708 136.063 43.513 136.187 43.6734C136.319 43.8266 136.504 44.0234 136.745 44.2641L140.792 48.2891L140.201 48.9891L135.903 44.7125C135.648 44.4573 135.447 44.2312 135.301 44.0344C135.155 43.8302 135.05 43.6333 134.984 43.4437C134.919 43.2542 134.886 43.0609 134.886 42.8641C134.886 42.5214 134.97 42.2224 135.137 41.9672C135.312 41.7047 135.553 41.5042 135.859 41.3656C136.173 41.2198 136.537 41.1469 136.953 41.1469C137.339 41.1469 137.675 41.2125 137.959 41.3437C138.244 41.4677 138.462 41.65 138.615 41.8906C138.776 42.124 138.856 42.4083 138.856 42.7437C138.856 43.0354 138.783 43.3052 138.637 43.5531C138.499 43.801 138.273 44.0417 137.959 44.275C137.646 44.5083 137.223 44.7599 136.69 45.0297C136.253 45.2557 135.91 45.4672 135.662 45.6641C135.414 45.8536 135.236 46.0432 135.126 46.2328C135.024 46.4224 134.973 46.6302 134.973 46.8562C134.973 47.0969 135.042 47.312 135.181 47.5016C135.327 47.6839 135.527 47.826 135.783 47.9281C136.045 48.0302 136.348 48.0812 136.69 48.0812C137.179 48.0812 137.62 47.9755 138.014 47.7641C138.408 47.5526 138.736 47.2354 138.998 46.8125C139.268 46.3896 139.465 45.8646 139.589 45.2375L140.431 45.5109C140.285 46.2474 140.034 46.8708 139.676 47.3812C139.326 47.8917 138.892 48.2818 138.375 48.5516C137.857 48.8214 137.274 48.9562 136.625 48.9562Z" fill="white"/>
<path d="M150.845 44.5156H154.782V45.4453H150.845V44.5156ZM150.943 47.9172H155.406V48.8688H149.849V41.2125H155.252V42.1641H150.943V47.9172Z" fill="white"/>
<path d="M159.583 48.8688V41.2125H160.48L165.544 47.5016H165.073V41.2125H166.167V48.8688H165.27L160.206 42.5797H160.677V48.8688H159.583Z" fill="white"/>
<path d="M173 48.8688L169.631 41.2125H170.812L173.908 48.2781H173.229L176.347 41.2125H177.44L174.083 48.8688H173Z" fill="white"/>
<path d="M180.823 48.8688V41.2125H181.917V48.8688H180.823Z" fill="white"/>
<path d="M186.615 48.8688V41.2125H189.601C190.272 41.2125 190.844 41.3182 191.318 41.5297C191.792 41.7411 192.157 42.0474 192.412 42.4484C192.667 42.8495 192.795 43.3271 192.795 43.8812C192.795 44.4354 192.667 44.913 192.412 45.3141C192.157 45.7078 191.792 46.0104 191.318 46.2219C190.844 46.4333 190.272 46.5391 189.601 46.5391H187.217L187.709 46.0359V48.8688H186.615ZM191.734 48.8688L189.787 46.0906H190.957L192.926 48.8688H191.734ZM187.709 46.1453L187.217 45.6094H189.568C190.268 45.6094 190.797 45.4599 191.154 45.1609C191.519 44.8547 191.701 44.4281 191.701 43.8812C191.701 43.3344 191.519 42.9115 191.154 42.6125C190.797 42.3135 190.268 42.1641 189.568 42.1641H187.217L187.709 41.6172V46.1453Z" fill="white"/>
<path d="M200.424 48.9562C199.841 48.9562 199.298 48.8578 198.795 48.6609C198.299 48.4641 197.869 48.1906 197.504 47.8406C197.14 47.4833 196.855 47.0677 196.651 46.5938C196.447 46.1198 196.345 45.6021 196.345 45.0406C196.345 44.4792 196.447 43.9615 196.651 43.4875C196.855 43.0135 197.14 42.6016 197.504 42.2516C197.869 41.8943 198.299 41.6172 198.795 41.4203C199.291 41.2234 199.834 41.125 200.424 41.125C201.008 41.125 201.544 41.2234 202.032 41.4203C202.528 41.6099 202.958 41.8833 203.323 42.2406C203.695 42.5906 203.979 43.0026 204.176 43.4766C204.38 43.9505 204.482 44.4719 204.482 45.0406C204.482 45.6094 204.38 46.1307 204.176 46.6047C203.979 47.0786 203.695 47.4943 203.323 47.8516C202.958 48.2016 202.528 48.475 202.032 48.6719C201.544 48.8615 201.008 48.9562 200.424 48.9562ZM200.424 47.9828C200.847 47.9828 201.237 47.9099 201.595 47.7641C201.959 47.6182 202.273 47.4141 202.535 47.1516C202.805 46.8818 203.013 46.5682 203.159 46.2109C203.312 45.8536 203.388 45.4635 203.388 45.0406C203.388 44.6177 203.312 44.2276 203.159 43.8703C203.013 43.513 202.805 43.2031 202.535 42.9406C202.273 42.6708 201.959 42.463 201.595 42.3172C201.237 42.1714 200.847 42.0984 200.424 42.0984C199.994 42.0984 199.597 42.1714 199.232 42.3172C198.875 42.463 198.561 42.6708 198.292 42.9406C198.022 43.2031 197.81 43.513 197.657 43.8703C197.511 44.2276 197.438 44.6177 197.438 45.0406C197.438 45.4635 197.511 45.8536 197.657 46.2109C197.81 46.5682 198.022 46.8818 198.292 47.1516C198.561 47.4141 198.875 47.6182 199.232 47.7641C199.597 47.9099 199.994 47.9828 200.424 47.9828Z" fill="white"/>
<path d="M208.56 48.8688V41.2125H209.457L214.521 47.5016H214.051V41.2125H215.145V48.8688H214.248L209.184 42.5797H209.654V48.8688H208.56Z" fill="white"/>
<path d="M219.842 48.8688V41.2125H220.739L224.174 46.9984H223.692L227.083 41.2125H227.98L227.991 48.8688H226.941L226.93 42.8641H227.182L224.163 47.9391H223.66L220.619 42.8641H220.892V48.8688H219.842Z" fill="white"/>
<path d="M233.69 44.5156H237.628V45.4453H233.69V44.5156ZM233.789 47.9172H238.251V48.8688H232.695V41.2125H238.098V42.1641H233.789V47.9172Z" fill="white"/>
<path d="M242.428 48.8688V41.2125H243.325L248.389 47.5016H247.919V41.2125H249.013V48.8688H248.116L243.052 42.5797H243.522V48.8688H242.428Z" fill="white"/>
<path d="M255.231 48.8688V42.1641H252.606V41.2125H258.939V42.1641H256.314V48.8688H255.231Z" fill="white"/>
<path d="M260.992 48.8688L264.46 41.2125H265.542L269.021 48.8688H267.872L264.777 41.825H265.214L262.119 48.8688H260.992ZM262.469 46.9547L262.764 46.0797H267.074L267.391 46.9547H262.469Z" fill="white"/>
<path d="M272.569 48.8688V41.2125H273.663V47.9172H277.808V48.8688H272.569Z" fill="white"/>
<path d="M71.7928 15.1353C71.5141 15.8478 71.3763 16.634 71.3763 17.5C71.3763 18.3476 71.5141 19.1246 71.7928 19.8371C72.0715 20.5496 72.4573 21.1607 72.9565 21.6674C73.4557 22.1772 74.0529 22.5703 74.7542 22.8498C75.4555 23.1293 76.2242 23.2675 77.0694 23.2675C77.9116 23.2675 78.7384 23.1293 79.5439 22.8498C79.7337 22.7822 79.9267 22.7055 80.1196 22.6164V17.067H85.1818V25.4295C84.012 26.2556 82.6737 26.8913 81.17 27.3336C79.6633 27.7758 78.1841 27.9969 76.7264 27.9969C75.1155 27.9969 73.6394 27.742 72.2981 27.2322C70.9567 26.7224 69.7869 26.0007 68.7885 25.0702C67.7902 24.1366 67.0154 23.0279 66.458 21.7381C65.9006 20.4513 65.625 19.0355 65.625 17.4969C65.625 15.9583 65.9037 14.5456 66.458 13.2588C67.0154 11.9721 67.7963 10.8603 68.8008 9.92673C69.8083 8.99313 70.9904 8.27449 72.3532 7.7647C73.7129 7.2549 75.2197 7 76.8673 7C78.7476 7 80.435 7.31632 81.9295 7.95203C83.424 8.58774 84.6612 9.49985 85.6381 10.6914L82.0153 13.9806C81.3262 13.2128 80.582 12.6446 79.7858 12.2792C78.9896 11.9137 78.1045 11.7325 77.1245 11.7325C76.2609 11.7325 75.4739 11.8677 74.7664 12.1348C74.0559 12.4051 73.4526 12.792 72.9535 13.3018C72.4604 13.8116 72.0715 14.4228 71.7928 15.1353ZM101.918 18.452C101.918 20.1626 101.587 21.3941 100.926 22.1435C100.264 22.8928 99.3396 23.2675 98.1513 23.2675C96.9631 23.2675 96.0321 22.8928 95.3614 22.1435C94.6908 21.3941 94.3539 20.1626 94.3539 18.452V7.40538H88.6577V18.624C88.6577 21.603 89.4877 23.9124 91.1444 25.5462C92.8012 27.18 95.1165 27.9969 98.0901 27.9969C101.042 27.9969 103.358 27.18 105.036 25.5462C106.714 23.9124 107.553 21.606 107.553 18.624V7.40538H101.918V18.452ZM117.132 7.40538H111.439V27.5946H126.712V23.0679H117.136V7.40538H117.132ZM128.981 27.5946H134.674V20.6724H143.534V16.2593H134.674V11.8462H144.741V7.40538H128.981V27.5946ZM171.173 18.8421C171.595 19.5453 171.806 20.4237 171.806 21.4801C171.806 22.6533 171.476 23.7343 170.814 24.7232C170.153 25.7151 169.161 26.5075 167.838 27.1032C166.515 27.699 164.855 27.9969 162.861 27.9969C161.192 27.9969 159.596 27.7912 158.071 27.3766C156.546 26.962 155.315 26.4399 154.375 25.8042L156.243 21.563C157.143 22.1404 158.185 22.6164 159.364 22.9911C160.543 23.3658 161.716 23.5531 162.886 23.5531C163.691 23.5531 164.328 23.4855 164.8 23.3504C165.268 23.2153 165.614 23.0249 165.835 22.773C166.055 22.5243 166.165 22.2264 166.165 21.8794C166.165 21.4371 165.954 21.087 165.532 20.826C165.109 20.568 164.558 20.3469 163.878 20.1626C163.198 19.9814 162.46 19.8064 161.664 19.6436C160.867 19.4808 160.059 19.2628 159.232 18.9956C158.408 18.7254 157.661 18.3722 156.987 17.9299C156.317 17.4877 155.775 16.9104 155.361 16.2009C154.948 15.4884 154.742 14.5948 154.742 13.5199C154.742 12.3283 155.067 11.2412 155.719 10.2615C156.372 9.28181 157.358 8.49254 158.681 7.89675C160.004 7.30096 161.651 7.00307 163.627 7.00307C164.95 7.00307 166.248 7.15355 167.522 7.45145C168.796 7.74934 169.923 8.19772 170.9 8.79351L169.176 13.0039C168.217 12.4665 167.268 12.0703 166.328 11.8216C165.388 11.5728 164.478 11.4469 163.596 11.4469C162.809 11.4469 162.178 11.5329 161.697 11.708C161.217 11.8799 160.874 12.1011 160.662 12.3713C160.451 12.6416 160.347 12.9302 160.347 13.2373C160.347 13.698 160.558 14.0604 160.981 14.3184C161.403 14.5763 161.948 14.7882 162.619 14.9541C163.29 15.1168 164.034 15.2858 164.849 15.4577C165.663 15.6297 166.475 15.8478 167.28 16.1057C168.086 16.3668 168.827 16.7107 169.51 17.1438C170.199 17.5706 170.75 18.1388 171.173 18.8421ZM194.888 13.2896C194.322 12.0212 193.538 10.9125 192.542 9.9728C191.544 9.03305 190.368 8.30214 189.008 7.78005C187.646 7.25797 186.16 7.00307 184.549 7.00307C182.939 7.00307 181.45 7.26104 180.09 7.78005C178.728 8.30214 177.552 9.03612 176.556 9.98816C175.558 10.934 174.777 12.0488 174.211 13.3172C173.65 14.5856 173.362 15.9706 173.362 17.4662C173.362 18.9864 173.65 20.3868 174.211 21.6644C174.777 22.945 175.561 24.0598 176.556 25.0118C177.555 25.9639 178.737 26.7009 180.109 27.2199C181.475 27.7359 182.957 27.9969 184.552 27.9969C186.163 27.9969 187.652 27.7328 189.011 27.2199C190.374 26.6979 191.556 25.97 192.564 25.0272C193.568 24.0813 194.349 22.9727 194.904 21.692C195.458 20.4175 195.74 19.0048 195.74 17.4662C195.737 15.9522 195.449 14.5579 194.888 13.2896ZM189.569 19.8801C189.287 20.5803 188.907 21.1853 188.417 21.6951C187.927 22.2049 187.355 22.5918 186.693 22.8621C186.032 23.1324 185.315 23.2705 184.549 23.2705C183.778 23.2705 183.067 23.1324 182.406 22.8621C181.744 22.5918 181.162 22.2049 180.669 21.6951C180.167 21.1853 179.784 20.5803 179.518 19.8801C179.248 19.1799 179.117 18.3845 179.117 17.4969C179.117 16.6155 179.248 15.8201 179.518 15.1199C179.787 14.4197 180.17 13.8147 180.669 13.2988C181.165 12.789 181.744 12.402 182.406 12.1318C183.067 11.8615 183.778 11.7295 184.549 11.7295C185.315 11.7295 186.032 11.8615 186.693 12.1318C187.355 12.402 187.93 12.789 188.417 13.2988C188.907 13.8147 189.29 14.4197 189.569 15.1199C189.844 15.8201 189.982 16.6155 189.982 17.4969C189.979 18.3845 189.841 19.1799 189.569 19.8801ZM211.839 18.452C211.839 20.1626 211.508 21.3941 210.847 22.1435C210.185 22.8928 209.26 23.2675 208.072 23.2675C206.884 23.2675 205.953 22.8928 205.282 22.1435C204.612 21.3941 204.275 20.1626 204.275 18.452V7.40538H198.578V18.624C198.578 21.603 199.408 23.9124 201.065 25.5462C202.722 27.18 205.037 27.9969 208.011 27.9969C210.963 27.9969 213.278 27.18 214.956 25.5462C216.635 23.9124 217.474 21.606 217.474 18.624V7.40538H211.836V18.452H211.839ZM235.536 21.2406C236.767 20.6663 237.723 19.8586 238.403 18.8267C239.119 17.7303 239.478 16.4006 239.478 14.8435C239.478 13.3295 239.119 12.0058 238.403 10.8788C237.68 9.75168 236.654 8.89178 235.31 8.29907C233.965 7.70021 232.373 7.40231 230.532 7.40231H221.36V27.5915H227.05V22.2264H230.131L233.784 27.5915H239.882L235.536 21.2406ZM232.86 17.0363C232.269 17.5584 231.374 17.8132 230.186 17.8132H227.05V11.9045H230.186C231.374 11.9045 232.269 12.1686 232.86 12.6938C233.457 13.2251 233.754 13.9376 233.754 14.8435C233.757 15.7925 233.457 16.5234 232.86 17.0363ZM248.898 13.3049C249.388 12.7951 249.976 12.4051 250.668 12.1379C251.357 11.8677 252.116 11.7356 252.94 11.7356C253.88 11.7356 254.741 11.9383 255.528 12.3406C256.315 12.746 257.032 13.3326 257.684 14.1003L261.307 10.8112C260.33 9.56127 259.108 8.61538 257.641 7.97046C256.174 7.32553 254.511 7.00307 252.652 7.00307C251.06 7.00307 249.593 7.25797 248.252 7.76777C246.91 8.27757 245.74 8.99927 244.742 9.9298C243.744 10.8634 242.969 11.9721 242.411 13.2619C241.854 14.5487 241.578 15.9645 241.578 17.5C241.578 19.0386 241.857 20.4513 242.411 21.7412C242.969 23.031 243.744 24.1397 244.742 25.0733C245.737 26.0069 246.907 26.7255 248.252 27.2353C249.593 27.7451 251.06 28 252.652 28C254.511 28 256.174 27.6714 257.641 27.0203C259.108 26.3662 260.33 25.4142 261.307 24.1642L257.684 20.8751C257.032 21.6644 256.312 22.2602 255.528 22.6625C254.741 23.0679 253.877 23.2675 252.94 23.2675C252.116 23.2675 251.357 23.1323 250.668 22.8652C249.979 22.5949 249.388 22.208 248.898 21.6982C248.408 21.1884 248.025 20.5772 247.746 19.8678C247.468 19.1553 247.33 18.3691 247.33 17.5031C247.33 16.637 247.468 15.8508 247.746 15.1383C248.025 14.4228 248.408 13.8116 248.898 13.3049ZM269.474 23.1538V19.4624H278.42V15.2213H269.474V11.8462H279.626V7.40538H263.867V27.5946H280V23.1538H269.474Z" fill="white"/>
</g>
<defs>
<clipPath id="clip0_0_2828">
<rect width="280" height="56" fill="white"/>
</clipPath>
</defs>
</svg>
