<svg width="280" height="56" viewBox="0 0 280 56" fill="none" xmlns="http://www.w3.org/2000/svg">
<g clip-path="url(#clip0_0_5761)">
<path d="M50.75 44.8496C50.75 50.524 39.5848 55.125 25.814 55.125C12.0432 55.125 0.875 50.524 0.875 44.8496C0.875 44.7599 0.877961 44.6703 0.880922 44.5865C1.2303 49.5314 12.2564 53.5016 25.811 53.5016C39.3657 53.5016 50.3917 49.5314 50.7411 44.5865C50.747 44.6732 50.75 44.7629 50.75 44.8496Z" fill="white"/>
<path d="M50.7455 44.5836V44.5866C50.3961 49.5315 39.37 53.5017 25.8154 53.5017C12.2607 53.5017 1.23463 49.5315 0.885254 44.5866V44.5836C0.982961 43.0231 1.9245 41.5492 3.52631 40.2367C4.15696 39.7763 4.8942 39.3398 5.72027 38.9272C4.16584 40.0603 3.2924 41.3518 3.2924 42.7151C3.2924 47.3491 13.377 51.104 25.8154 51.104C38.2538 51.104 48.3383 47.3491 48.3383 42.7151C48.3383 41.3518 47.4619 40.0603 45.9104 38.9272C46.7395 39.3368 47.4737 39.7763 48.1044 40.2367C49.7062 41.5492 50.6448 43.0231 50.7455 44.5836Z" fill="white"/>
<path d="M44.3463 41.4385C44.3463 45.6569 36.0501 49.0771 25.8116 49.0771C15.579 49.0771 7.27686 45.6599 7.27686 41.4385C7.27686 41.3728 7.27982 41.307 7.28278 41.2412C7.53741 44.9185 15.7359 47.8692 25.8086 47.8692C35.8873 47.8692 44.0798 44.9215 44.3345 41.2412C44.3433 41.31 44.3463 41.3757 44.3463 41.4385Z" fill="white"/>
<path d="M44.3472 41.0642C44.3472 41.121 44.3443 41.1808 44.3413 41.2376C44.0867 44.9149 35.8911 47.8656 25.8155 47.8656C15.7428 47.8656 7.54424 44.9179 7.28961 41.2376C7.28665 41.1808 7.28369 41.121 7.28369 41.0642C7.28369 40.1195 7.81368 39.2136 8.76706 38.3975C8.73449 38.4423 8.70488 38.4872 8.67528 38.532C8.35551 39.0253 8.18674 39.5425 8.18674 40.0746C8.18674 43.7011 16.0803 46.6399 25.8184 46.6399C35.5566 46.6399 43.4501 43.7011 43.4501 40.0746C43.4501 39.5425 43.2813 39.0253 42.9616 38.532C42.932 38.4872 42.9053 38.4423 42.8698 38.3975C43.8172 39.2166 44.3472 40.1195 44.3472 41.0642Z" fill="white"/>
<path d="M19.616 15.6438C16.7203 18.49 15.6011 20.6903 15.4324 22.2838C14.3665 32.3649 41.9495 24.7742 31.8738 9.28784C33.4105 28.1883 14.1414 26.6696 21.7123 17.3419C23.092 15.6438 33.9997 9.32671 30.1743 5.23987C33.9641 9.28784 36.7325 16.2238 34.2395 21.5484C33.5022 23.1239 31.8353 25.3542 27.6665 27.2556C23.7375 29.0494 11.1717 31.1092 12.8239 36.5025C12.8239 36.5025 4.86816 24.3467 16.6048 13.7843C26.9263 4.49844 25.3541 0.875 25.3541 0.875C25.3541 0.875 29.2091 6.22048 19.616 15.6438Z" fill="white"/>
<path d="M25.3561 0.875C25.3561 0.875 26.4812 5.33853 21.8386 10.7079C17.9244 15.2312 11.3099 21.8413 11.2744 30.018C11.2596 33.5458 12.8288 36.5025 12.8288 36.5025C12.8288 36.5025 7.35724 28.7653 11.8044 19.9758C16.2515 11.1863 24.9475 8.54342 25.3561 0.875Z" fill="white"/>
<path d="M25.9826 30.5984C5.6921 37.8841 18.8174 42.832 18.8263 42.7901C18.8263 42.7901 12.0727 38.2937 24.7154 34.6344C36.0109 31.3667 42.3352 25.7432 38.1368 17.2437C37.7607 20.2004 37.1301 26.5952 25.9826 30.5984Z" fill="white"/>
<path d="M41.1511 24.6487C40.0467 30.4127 36.0673 33.4233 28.7038 35.2978C20.6652 37.3457 13.2572 38.8375 18.8265 42.7898C13.0943 38.7209 44.7307 40.2426 41.1511 24.6487Z" fill="white"/>
<path d="M41.151 24.6487C41.151 24.6487 44.7691 38.1678 30.5365 43.1964C28.0316 44.0813 25.3313 44.5328 22.1929 43.5701C22.1929 43.5701 28.4668 43.6747 33.8111 39.573C34.9303 38.7119 42.4834 32.3679 41.151 24.6487Z" fill="white"/>
<path d="M30.1752 5.23975C30.1752 5.23975 33.2781 7.81383 27.9575 12.9082C23.5015 17.1774 21.2217 19.6887 21.6658 21.8203C22.1573 24.1821 24.5526 23.9848 26.03 23.3839C26.03 23.3839 22.8116 24.9594 20.9049 23.4108C18.1661 21.1865 21.7191 16.8904 23.8894 15.1235C26.036 13.3746 32.5586 8.90803 30.1752 5.23975Z" fill="white"/>
<path d="M38.1392 17.2437C38.1392 17.2437 37.6417 20.7445 36.6706 22.5503C35.6639 24.4248 33.1443 27.4891 28.3981 29.6387C23.6756 31.7793 12.1491 34.2756 14.9678 39.8633C14.9678 39.8633 12.3623 36.0096 26.3581 31.4235C35.2524 28.5086 38.3287 22.4038 38.1392 17.2437Z" fill="white"/>
<path d="M18.8271 42.7896C18.8271 42.7896 14.072 40.1168 25.3823 37.749C38.4129 35.0195 40.3907 31.0463 40.3907 31.0463C40.3907 31.0463 36.6986 37.4919 26.7028 39.4262C17.9743 41.1124 18.8271 42.7896 18.8271 42.7896Z" fill="white"/>
<path d="M22.1895 43.5699C22.1895 43.5699 37.1179 39.5966 40.3896 31.0463C40.3896 31.0433 37.636 43.256 22.1895 43.5699Z" fill="white"/>
<path d="M30.1744 5.23975C30.1744 5.23975 37.384 12.6271 34.5979 20.5945C31.0745 30.6666 14.1742 27.7428 12.827 36.5024C12.827 36.5024 10.9173 32.009 21.2298 28.6456C34.0324 24.4691 34.512 18.2297 34.663 16.6602C34.6838 16.43 34.6778 16.2207 34.663 15.9995C34.5801 14.8156 34.4499 10.935 30.1744 5.23975Z" fill="white"/>
<path d="M71.7203 48.8618C71.1603 48.8618 70.6248 48.7778 70.1137 48.6097C69.6028 48.4348 69.2003 48.2107 68.9062 47.9377L69.2948 47.1188C69.5748 47.3637 69.9318 47.5668 70.3658 47.7277C70.7998 47.8888 71.2513 47.9693 71.7203 47.9693C72.1472 47.9693 72.4938 47.9202 72.7598 47.8222C73.0258 47.7242 73.2218 47.5912 73.3478 47.4233C73.4738 47.2483 73.5368 47.0522 73.5368 46.8352C73.5368 46.5833 73.4528 46.3802 73.2847 46.2262C73.1238 46.0722 72.9103 45.9497 72.6443 45.8587C72.3853 45.7607 72.0983 45.6767 71.7833 45.6067C71.4683 45.5367 71.1498 45.4562 70.8278 45.3652C70.5128 45.2672 70.2223 45.1447 69.9563 44.9977C69.6973 44.8507 69.4873 44.6547 69.3262 44.4097C69.1653 44.1577 69.0848 43.8357 69.0848 43.4437C69.0848 43.0657 69.1828 42.7192 69.3788 42.4042C69.5818 42.0822 69.8898 41.8267 70.3028 41.6377C70.7228 41.4417 71.2548 41.3438 71.8988 41.3438C72.3258 41.3438 72.7493 41.3997 73.1693 41.5117C73.5893 41.6237 73.9532 41.7847 74.2613 41.9947L73.9148 42.8347C73.5998 42.6247 73.2673 42.4742 72.9173 42.3832C72.5673 42.2852 72.2278 42.2362 71.8988 42.2362C71.4858 42.2362 71.1463 42.2887 70.8803 42.3937C70.6143 42.4987 70.4183 42.6387 70.2923 42.8137C70.1733 42.9887 70.1137 43.1847 70.1137 43.4017C70.1137 43.6607 70.1942 43.8672 70.3553 44.0213C70.5233 44.1752 70.7368 44.2977 70.9957 44.3888C71.2618 44.4797 71.5523 44.5637 71.8672 44.6407C72.1823 44.7107 72.4973 44.7912 72.8123 44.8822C73.1343 44.9732 73.4247 45.0922 73.6838 45.2392C73.9497 45.3862 74.1633 45.5822 74.3243 45.8272C74.4853 46.0722 74.5658 46.3872 74.5658 46.7723C74.5658 47.1432 74.4643 47.4897 74.2613 47.8118C74.0582 48.1267 73.7433 48.3822 73.3163 48.5782C72.8963 48.7672 72.3643 48.8618 71.7203 48.8618Z" fill="white"/>
<path d="M79.3547 48.7778V41.4277H82.2212C82.8652 41.4277 83.4147 41.5292 83.8697 41.7323C84.3247 41.9352 84.6747 42.2292 84.9197 42.6142C85.1647 42.9992 85.2872 43.4577 85.2872 43.9897C85.2872 44.5217 85.1647 44.9802 84.9197 45.3652C84.6747 45.7432 84.3247 46.0373 83.8697 46.2473C83.4147 46.4503 82.8652 46.5517 82.2212 46.5517H79.9322L80.4047 46.0582V48.7778H79.3547ZM80.4047 46.1632L79.9322 45.6382H82.1897C82.8617 45.6382 83.3692 45.4947 83.7122 45.2077C84.0622 44.9207 84.2372 44.5147 84.2372 43.9897C84.2372 43.4647 84.0622 43.0587 83.7122 42.7717C83.3692 42.4847 82.8617 42.3412 82.1897 42.3412H79.9322L80.4047 41.8162V46.1632Z" fill="white"/>
<path d="M91.0403 44.5987H94.8203V45.4913H91.0403V44.5987ZM91.1348 47.8643H95.4188V48.7778H90.0848V41.4277H95.2718V42.3412H91.1348V47.8643Z" fill="white"/>
<path d="M103.65 48.8618C103.09 48.8618 102.572 48.7707 102.096 48.5887C101.627 48.3997 101.218 48.1372 100.868 47.8012C100.525 47.4583 100.255 47.0593 100.059 46.6042C99.8633 46.1493 99.7653 45.6487 99.7653 45.1027C99.7653 44.5567 99.8633 44.0562 100.059 43.6012C100.255 43.1462 100.528 42.7507 100.878 42.4147C101.228 42.0717 101.638 41.8092 102.107 41.6272C102.583 41.4382 103.101 41.3438 103.661 41.3438C104.228 41.3438 104.749 41.4417 105.225 41.6377C105.708 41.8267 106.118 42.1102 106.454 42.4882L105.771 43.1497C105.491 42.8557 105.176 42.6387 104.826 42.4987C104.476 42.3517 104.102 42.2782 103.703 42.2782C103.29 42.2782 102.905 42.3482 102.548 42.4882C102.198 42.6282 101.893 42.8242 101.634 43.0762C101.375 43.3282 101.172 43.6292 101.025 43.9792C100.885 44.3222 100.815 44.6967 100.815 45.1027C100.815 45.5087 100.885 45.8867 101.025 46.2368C101.172 46.5798 101.375 46.8773 101.634 47.1293C101.893 47.3812 102.198 47.5773 102.548 47.7172C102.905 47.8572 103.29 47.9272 103.703 47.9272C104.102 47.9272 104.476 47.8572 104.826 47.7172C105.176 47.5703 105.491 47.3462 105.771 47.0452L106.454 47.7067C106.118 48.0847 105.708 48.3717 105.225 48.5677C104.749 48.7637 104.224 48.8618 103.65 48.8618Z" fill="white"/>
<path d="M111.207 48.7778V41.4277H112.257V48.7778H111.207Z" fill="white"/>
<path d="M116.599 48.7778L119.928 41.4277H120.967L124.306 48.7778H123.204L120.232 42.0157H120.652L117.681 48.7778H116.599ZM118.017 46.9402L118.3 46.1002H122.437L122.742 46.9402H118.017Z" fill="white"/>
<path d="M128.658 48.7778V41.4277H129.708V47.8643H133.687V48.7778H128.658Z" fill="white"/>
<path d="M138.147 48.7778V41.4277H139.197V48.7778H138.147Z" fill="white"/>
<path d="M144.001 48.7778V48.0637L148.947 41.9317L149.062 42.3412H144.075V41.4277H150.007V42.1417L145.083 48.2738L144.957 47.8643H150.144V48.7778H144.001Z" fill="white"/>
<path d="M155.764 44.5987H159.544V45.4913H155.764V44.5987ZM155.858 47.8643H160.142V48.7778H154.808V41.4277H159.995V42.3412H155.858V47.8643Z" fill="white"/>
<path d="M165.097 48.7778V41.4277H168.195C168.979 41.4277 169.668 41.5817 170.263 41.8897C170.865 42.1977 171.331 42.6282 171.66 43.1812C171.996 43.7342 172.164 44.3747 172.164 45.1027C172.164 45.8307 171.996 46.4713 171.66 47.0243C171.331 47.5773 170.865 48.0078 170.263 48.3158C169.668 48.6237 168.979 48.7778 168.195 48.7778H165.097ZM166.147 47.8643H168.132C168.741 47.8643 169.266 47.7487 169.707 47.5177C170.155 47.2867 170.501 46.9647 170.746 46.5517C170.991 46.1317 171.114 45.6487 171.114 45.1027C171.114 44.5497 170.991 44.0667 170.746 43.6537C170.501 43.2407 170.155 42.9187 169.707 42.6877C169.266 42.4567 168.741 42.3412 168.132 42.3412H166.147V47.8643Z" fill="white"/>
<path d="M183.102 48.7778V41.4277H184.152V48.7778H183.102Z" fill="white"/>
<path d="M189.608 48.7778V41.4277H190.469L195.33 47.4653H194.879V41.4277H195.929V48.7778H195.068L190.206 42.7402H190.658V48.7778H189.608Z" fill="white"/>
<path d="M201.384 48.7778V41.4277H204.481C205.265 41.4277 205.955 41.5817 206.55 41.8897C207.152 42.1977 207.617 42.6282 207.946 43.1812C208.282 43.7342 208.45 44.3747 208.45 45.1027C208.45 45.8307 208.282 46.4713 207.946 47.0243C207.617 47.5773 207.152 48.0078 206.55 48.3158C205.955 48.6237 205.265 48.7778 204.481 48.7778H201.384ZM202.434 47.8643H204.418C205.027 47.8643 205.552 47.7487 205.993 47.5177C206.441 47.2867 206.788 46.9647 207.033 46.5517C207.278 46.1317 207.4 45.6487 207.4 45.1027C207.4 44.5497 207.278 44.0667 207.033 43.6537C206.788 43.2407 206.441 42.9187 205.993 42.6877C205.552 42.4567 205.027 42.3412 204.418 42.3412H202.434V47.8643Z" fill="white"/>
<path d="M216.358 48.8618C215.392 48.8618 214.633 48.5852 214.08 48.0322C213.527 47.4792 213.25 46.6707 213.25 45.6067V41.4277H214.3V45.5647C214.3 46.3837 214.479 46.9822 214.836 47.3602C215.2 47.7382 215.711 47.9272 216.369 47.9272C217.034 47.9272 217.545 47.7382 217.902 47.3602C218.266 46.9822 218.448 46.3837 218.448 45.5647V41.4277H219.466V45.6067C219.466 46.6707 219.19 47.4792 218.637 48.0322C218.091 48.5852 217.331 48.8618 216.358 48.8618Z" fill="white"/>
<path d="M227.016 48.8618C226.456 48.8618 225.921 48.7778 225.41 48.6097C224.899 48.4348 224.496 48.2107 224.202 47.9377L224.591 47.1188C224.871 47.3637 225.228 47.5668 225.662 47.7277C226.096 47.8888 226.547 47.9693 227.016 47.9693C227.443 47.9693 227.79 47.9202 228.056 47.8222C228.322 47.7242 228.518 47.5912 228.644 47.4233C228.77 47.2483 228.833 47.0522 228.833 46.8352C228.833 46.5833 228.749 46.3802 228.581 46.2262C228.42 46.0722 228.206 45.9497 227.94 45.8587C227.681 45.7607 227.394 45.6767 227.079 45.6067C226.764 45.5367 226.446 45.4562 226.124 45.3652C225.809 45.2672 225.518 45.1447 225.252 44.9977C224.993 44.8507 224.783 44.6547 224.622 44.4097C224.461 44.1577 224.381 43.8357 224.381 43.4437C224.381 43.0657 224.479 42.7192 224.675 42.4042C224.878 42.0822 225.186 41.8267 225.599 41.6377C226.019 41.4417 226.551 41.3438 227.195 41.3438C227.622 41.3438 228.045 41.3997 228.465 41.5117C228.885 41.6237 229.249 41.7847 229.557 41.9947L229.211 42.8347C228.896 42.6247 228.563 42.4742 228.213 42.3832C227.863 42.2852 227.524 42.2362 227.195 42.2362C226.782 42.2362 226.442 42.2887 226.176 42.3937C225.91 42.4987 225.714 42.6387 225.588 42.8137C225.469 42.9887 225.41 43.1847 225.41 43.4017C225.41 43.6607 225.49 43.8672 225.651 44.0213C225.819 44.1752 226.033 44.2977 226.292 44.3888C226.558 44.4797 226.848 44.5637 227.163 44.6407C227.478 44.7107 227.793 44.7912 228.108 44.8822C228.43 44.9732 228.721 45.0922 228.98 45.2392C229.246 45.3862 229.459 45.5822 229.62 45.8272C229.781 46.0722 229.862 46.3872 229.862 46.7723C229.862 47.1432 229.76 47.4897 229.557 47.8118C229.354 48.1267 229.039 48.3822 228.612 48.5782C228.192 48.7672 227.66 48.8618 227.016 48.8618Z" fill="white"/>
<path d="M236.008 48.7778V42.3412H233.488V41.4277H239.567V42.3412H237.047V48.7778H236.008Z" fill="white"/>
<path d="M243.966 48.7778V41.4277H246.832C247.476 41.4277 248.026 41.5292 248.481 41.7323C248.936 41.9352 249.286 42.2292 249.531 42.6142C249.776 42.9992 249.898 43.4577 249.898 43.9897C249.898 44.5217 249.776 44.9802 249.531 45.3652C249.286 45.7432 248.936 46.0338 248.481 46.2368C248.026 46.4398 247.476 46.5413 246.832 46.5413H244.543L245.016 46.0582V48.7778H243.966ZM248.88 48.7778L247.011 46.1108H248.134L250.024 48.7778H248.88ZM245.016 46.1632L244.543 45.6488H246.801C247.473 45.6488 247.98 45.5052 248.323 45.2183C248.673 44.9243 248.848 44.5147 248.848 43.9897C248.848 43.4647 248.673 43.0587 248.323 42.7717C247.98 42.4847 247.473 42.3412 246.801 42.3412H244.543L245.016 41.8162V46.1632Z" fill="white"/>
<path d="M254.85 48.7778V41.4277H255.9V48.7778H254.85Z" fill="white"/>
<path d="M262.311 44.5987H266.091V45.4913H262.311V44.5987ZM262.405 47.8643H266.689V48.7778H261.355V41.4277H266.542V42.3412H262.405V47.8643Z" fill="white"/>
<path d="M273.786 48.8618C273.226 48.8618 272.691 48.7778 272.18 48.6097C271.669 48.4348 271.266 48.2107 270.972 47.9377L271.361 47.1188C271.641 47.3637 271.998 47.5668 272.432 47.7277C272.866 47.8888 273.317 47.9693 273.786 47.9693C274.213 47.9693 274.56 47.9202 274.826 47.8222C275.092 47.7242 275.288 47.5912 275.414 47.4233C275.54 47.2483 275.603 47.0522 275.603 46.8352C275.603 46.5833 275.519 46.3802 275.351 46.2262C275.19 46.0722 274.976 45.9497 274.71 45.8587C274.451 45.7607 274.164 45.6767 273.849 45.6067C273.534 45.5367 273.216 45.4562 272.894 45.3652C272.579 45.2672 272.288 45.1447 272.022 44.9977C271.763 44.8507 271.553 44.6547 271.392 44.4097C271.231 44.1577 271.151 43.8357 271.151 43.4437C271.151 43.0657 271.249 42.7192 271.445 42.4042C271.648 42.0822 271.956 41.8267 272.369 41.6377C272.789 41.4417 273.321 41.3438 273.965 41.3438C274.392 41.3438 274.815 41.3997 275.235 41.5117C275.655 41.6237 276.019 41.7847 276.327 41.9947L275.981 42.8347C275.666 42.6247 275.333 42.4742 274.983 42.3832C274.633 42.2852 274.294 42.2362 273.965 42.2362C273.552 42.2362 273.212 42.2887 272.946 42.3937C272.68 42.4987 272.484 42.6387 272.358 42.8137C272.239 42.9887 272.18 43.1847 272.18 43.4017C272.18 43.6607 272.26 43.8672 272.421 44.0213C272.589 44.1752 272.803 44.2977 273.062 44.3888C273.328 44.4797 273.618 44.5637 273.933 44.6407C274.248 44.7107 274.563 44.7912 274.878 44.8822C275.2 44.9732 275.491 45.0922 275.75 45.2392C276.016 45.3862 276.229 45.5822 276.39 45.8272C276.551 46.0722 276.632 46.3872 276.632 46.7723C276.632 47.1432 276.53 47.4897 276.327 47.8118C276.124 48.1267 275.809 48.3822 275.382 48.5782C274.962 48.7672 274.43 48.8618 273.786 48.8618Z" fill="white"/>
<path d="M71.7928 15.1353C71.5141 15.8478 71.3763 16.634 71.3763 17.5C71.3763 18.3476 71.5141 19.1246 71.7928 19.8371C72.0715 20.5496 72.4573 21.1607 72.9565 21.6674C73.4557 22.1772 74.0529 22.5703 74.7542 22.8498C75.4555 23.1293 76.2242 23.2675 77.0694 23.2675C77.9116 23.2675 78.7384 23.1293 79.5439 22.8498C79.7337 22.7822 79.9267 22.7055 80.1196 22.6164V17.067H85.1818V25.4295C84.012 26.2556 82.6737 26.8913 81.17 27.3336C79.6633 27.7758 78.1841 27.9969 76.7264 27.9969C75.1155 27.9969 73.6394 27.742 72.2981 27.2322C70.9567 26.7224 69.7869 26.0007 68.7885 25.0702C67.7902 24.1366 67.0154 23.0279 66.458 21.7381C65.9006 20.4513 65.625 19.0355 65.625 17.4969C65.625 15.9583 65.9037 14.5456 66.458 13.2588C67.0154 11.9721 67.7963 10.8603 68.8008 9.92673C69.8083 8.99313 70.9904 8.27449 72.3532 7.7647C73.7129 7.2549 75.2197 7 76.8673 7C78.7476 7 80.435 7.31632 81.9295 7.95203C83.424 8.58774 84.6612 9.49985 85.6381 10.6914L82.0153 13.9806C81.3262 13.2128 80.582 12.6446 79.7858 12.2792C78.9896 11.9137 78.1045 11.7325 77.1245 11.7325C76.2609 11.7325 75.4739 11.8677 74.7664 12.1348C74.0559 12.4051 73.4526 12.792 72.9535 13.3018C72.4604 13.8116 72.0715 14.4228 71.7928 15.1353ZM101.918 18.452C101.918 20.1626 101.587 21.3941 100.926 22.1435C100.264 22.8928 99.3396 23.2675 98.1513 23.2675C96.9631 23.2675 96.0321 22.8928 95.3614 22.1435C94.6908 21.3941 94.3539 20.1626 94.3539 18.452V7.40538H88.6577V18.624C88.6577 21.603 89.4877 23.9124 91.1444 25.5462C92.8012 27.18 95.1165 27.9969 98.0901 27.9969C101.042 27.9969 103.358 27.18 105.036 25.5462C106.714 23.9124 107.553 21.606 107.553 18.624V7.40538H101.918V18.452ZM117.132 7.40538H111.439V27.5946H126.712V23.0679H117.136V7.40538H117.132ZM128.981 27.5946H134.674V20.6724H143.534V16.2593H134.674V11.8462H144.741V7.40538H128.981V27.5946ZM171.173 18.8421C171.595 19.5453 171.806 20.4237 171.806 21.4801C171.806 22.6533 171.476 23.7343 170.814 24.7232C170.153 25.7151 169.161 26.5075 167.838 27.1032C166.515 27.699 164.855 27.9969 162.861 27.9969C161.192 27.9969 159.596 27.7912 158.071 27.3766C156.546 26.962 155.315 26.4399 154.375 25.8042L156.243 21.563C157.143 22.1404 158.185 22.6164 159.364 22.9911C160.543 23.3658 161.716 23.5531 162.886 23.5531C163.691 23.5531 164.328 23.4855 164.8 23.3504C165.268 23.2153 165.614 23.0249 165.835 22.773C166.055 22.5243 166.165 22.2264 166.165 21.8794C166.165 21.4371 165.954 21.087 165.532 20.826C165.109 20.568 164.558 20.3469 163.878 20.1626C163.198 19.9814 162.46 19.8064 161.664 19.6436C160.867 19.4808 160.059 19.2628 159.232 18.9956C158.408 18.7254 157.661 18.3722 156.987 17.9299C156.317 17.4877 155.775 16.9104 155.361 16.2009C154.948 15.4884 154.742 14.5948 154.742 13.5199C154.742 12.3283 155.067 11.2412 155.719 10.2615C156.372 9.28181 157.358 8.49254 158.681 7.89675C160.004 7.30096 161.651 7.00307 163.627 7.00307C164.95 7.00307 166.248 7.15355 167.522 7.45145C168.796 7.74934 169.923 8.19772 170.9 8.79351L169.176 13.0039C168.217 12.4665 167.268 12.0703 166.328 11.8216C165.388 11.5728 164.478 11.4469 163.596 11.4469C162.809 11.4469 162.178 11.5329 161.697 11.708C161.217 11.8799 160.874 12.1011 160.662 12.3713C160.451 12.6416 160.347 12.9302 160.347 13.2373C160.347 13.698 160.558 14.0604 160.981 14.3184C161.403 14.5763 161.948 14.7882 162.619 14.9541C163.29 15.1168 164.034 15.2858 164.849 15.4577C165.663 15.6297 166.475 15.8478 167.28 16.1057C168.086 16.3668 168.827 16.7107 169.51 17.1438C170.199 17.5706 170.75 18.1388 171.173 18.8421ZM194.888 13.2896C194.322 12.0212 193.538 10.9125 192.542 9.9728C191.544 9.03305 190.368 8.30214 189.008 7.78005C187.646 7.25797 186.16 7.00307 184.549 7.00307C182.939 7.00307 181.45 7.26104 180.09 7.78005C178.728 8.30214 177.552 9.03612 176.556 9.98816C175.558 10.934 174.777 12.0488 174.211 13.3172C173.65 14.5856 173.362 15.9706 173.362 17.4662C173.362 18.9864 173.65 20.3868 174.211 21.6644C174.777 22.945 175.561 24.0598 176.556 25.0118C177.555 25.9639 178.737 26.7009 180.109 27.2199C181.475 27.7359 182.957 27.9969 184.552 27.9969C186.163 27.9969 187.652 27.7328 189.011 27.2199C190.374 26.6979 191.556 25.97 192.564 25.0272C193.568 24.0813 194.349 22.9727 194.904 21.692C195.458 20.4175 195.74 19.0048 195.74 17.4662C195.737 15.9522 195.449 14.5579 194.888 13.2896ZM189.569 19.8801C189.287 20.5803 188.907 21.1853 188.417 21.6951C187.927 22.2049 187.355 22.5918 186.693 22.8621C186.032 23.1324 185.315 23.2705 184.549 23.2705C183.778 23.2705 183.067 23.1324 182.406 22.8621C181.744 22.5918 181.162 22.2049 180.669 21.6951C180.167 21.1853 179.784 20.5803 179.518 19.8801C179.248 19.1799 179.117 18.3845 179.117 17.4969C179.117 16.6155 179.248 15.8201 179.518 15.1199C179.787 14.4197 180.17 13.8147 180.669 13.2988C181.165 12.789 181.744 12.402 182.406 12.1318C183.067 11.8615 183.778 11.7295 184.549 11.7295C185.315 11.7295 186.032 11.8615 186.693 12.1318C187.355 12.402 187.93 12.789 188.417 13.2988C188.907 13.8147 189.29 14.4197 189.569 15.1199C189.844 15.8201 189.982 16.6155 189.982 17.4969C189.979 18.3845 189.841 19.1799 189.569 19.8801ZM211.839 18.452C211.839 20.1626 211.508 21.3941 210.847 22.1435C210.185 22.8928 209.26 23.2675 208.072 23.2675C206.884 23.2675 205.953 22.8928 205.282 22.1435C204.612 21.3941 204.275 20.1626 204.275 18.452V7.40538H198.578V18.624C198.578 21.603 199.408 23.9124 201.065 25.5462C202.722 27.18 205.037 27.9969 208.011 27.9969C210.963 27.9969 213.278 27.18 214.956 25.5462C216.635 23.9124 217.474 21.606 217.474 18.624V7.40538H211.836V18.452H211.839ZM235.536 21.2406C236.767 20.6663 237.723 19.8586 238.403 18.8267C239.119 17.7303 239.478 16.4006 239.478 14.8435C239.478 13.3295 239.119 12.0058 238.403 10.8788C237.68 9.75168 236.654 8.89178 235.31 8.29907C233.965 7.70021 232.373 7.40231 230.532 7.40231H221.36V27.5915H227.05V22.2264H230.131L233.784 27.5915H239.882L235.536 21.2406ZM232.86 17.0363C232.269 17.5584 231.374 17.8132 230.186 17.8132H227.05V11.9045H230.186C231.374 11.9045 232.269 12.1686 232.86 12.6938C233.457 13.2251 233.754 13.9376 233.754 14.8435C233.757 15.7925 233.457 16.5234 232.86 17.0363ZM248.898 13.3049C249.388 12.7951 249.976 12.4051 250.668 12.1379C251.357 11.8677 252.116 11.7356 252.94 11.7356C253.88 11.7356 254.741 11.9383 255.528 12.3406C256.315 12.746 257.032 13.3326 257.684 14.1003L261.307 10.8112C260.33 9.56127 259.108 8.61538 257.641 7.97046C256.174 7.32553 254.511 7.00307 252.652 7.00307C251.06 7.00307 249.593 7.25797 248.252 7.76777C246.91 8.27757 245.74 8.99927 244.742 9.9298C243.744 10.8634 242.969 11.9721 242.411 13.2619C241.854 14.5487 241.578 15.9645 241.578 17.5C241.578 19.0386 241.857 20.4513 242.411 21.7412C242.969 23.031 243.744 24.1397 244.742 25.0733C245.737 26.0069 246.907 26.7255 248.252 27.2353C249.593 27.7451 251.06 28 252.652 28C254.511 28 256.174 27.6714 257.641 27.0203C259.108 26.3662 260.33 25.4142 261.307 24.1642L257.684 20.8751C257.032 21.6644 256.312 22.2602 255.528 22.6625C254.741 23.0679 253.877 23.2675 252.94 23.2675C252.116 23.2675 251.357 23.1323 250.668 22.8652C249.979 22.5949 249.388 22.208 248.898 21.6982C248.408 21.1884 248.025 20.5772 247.746 19.8678C247.468 19.1553 247.33 18.3691 247.33 17.5031C247.33 16.637 247.468 15.8508 247.746 15.1383C248.025 14.4228 248.408 13.8116 248.898 13.3049ZM269.474 23.1538V19.4624H278.42V15.2213H269.474V11.8462H279.626V7.40538H263.867V27.5946H280V23.1538H269.474Z" fill="white"/>
</g>
<defs>
<clipPath id="clip0_0_5761">
<rect width="280" height="56" fill="white"/>
</clipPath>
</defs>
</svg>
