<svg width="280" height="51" viewBox="0 0 280 51" fill="none" xmlns="http://www.w3.org/2000/svg">
<path d="M89.5453 25.7293C88.6047 25.7293 87.7597 25.5966 87.0102 25.3301C86.2607 25.0635 85.6667 24.6393 85.2258 24.0573C84.7849 23.4754 84.5657 22.7132 84.5657 21.7708H87.5319C87.5564 22.1688 87.6544 22.4854 87.8283 22.7219C88.0022 22.9572 88.2385 23.1262 88.5386 23.2276C88.8386 23.3289 89.1852 23.379 89.5808 23.379C89.9764 23.379 90.3168 23.3364 90.601 23.2501C90.8851 23.165 91.1043 23.0323 91.2574 22.8546C91.4105 22.6769 91.4864 22.4541 91.4864 22.1838C91.4864 21.896 91.4154 21.6607 91.2758 21.4767C91.1349 21.2927 90.8802 21.1213 90.5116 20.9623C90.1429 20.8034 89.6139 20.6194 88.9256 20.4117C88.1222 20.1726 87.4131 19.9048 86.7958 19.6082C86.1786 19.3116 85.6936 18.9236 85.3397 18.4456C84.9857 17.9675 84.8094 17.3367 84.8094 16.5533C84.8094 15.7148 85.0127 15.0377 85.4205 14.5233C85.8283 14.009 86.3794 13.636 87.0738 13.4032C87.7695 13.1704 88.557 13.0541 89.4375 13.0541C90.3181 13.0541 91.0688 13.1817 91.7791 13.4358C92.4894 13.6898 93.0553 14.0828 93.4778 14.6159C93.9003 15.1491 94.1109 15.8311 94.1109 16.6646H91.1447C91.1447 16.2053 90.9745 15.8674 90.6328 15.6497C90.2911 15.4319 89.887 15.323 89.4191 15.323C88.9819 15.323 88.5998 15.4006 88.2728 15.5571C87.9458 15.7135 87.7829 15.9726 87.7829 16.333C87.7829 16.5358 87.8515 16.7172 87.9899 16.8799C88.1271 17.0426 88.3904 17.2091 88.7762 17.3805C89.1632 17.552 89.7278 17.7547 90.4699 17.9862C91.3811 18.2678 92.1306 18.5632 92.7209 18.8723C93.3112 19.1814 93.7497 19.5794 94.0375 20.0662C94.3253 20.5531 94.4686 21.1976 94.4686 21.9998C94.4686 22.8997 94.253 23.6243 93.8219 24.1724C93.3908 24.7206 92.803 25.1173 92.0596 25.3614C91.3162 25.6067 90.4773 25.7293 89.5428 25.7293H89.5453Z" fill="white"/>
<path d="M98.6951 25.5666V21.075L94.6144 13.203H97.8317L100.168 18.3379L102.523 13.203H105.741L101.66 21.075V25.5666H98.6938H98.6951Z" fill="white"/>
<path d="M107.136 25.5666V13.2043H109.94L115.073 20.9285V13.2043H117.797V25.5666H114.983L109.834 17.7772V25.5666H107.137H107.136Z" fill="white"/>
<path d="M120.563 25.5666V13.2043H128.841V15.6472H123.448V18.0989H128.302V20.4505H123.448V23.1237H128.841V25.5666H120.563Z" fill="white"/>
<path d="M131.241 25.5666V13.2043H136.382C137.191 13.2043 137.911 13.3144 138.539 13.5347C139.169 13.7549 139.665 14.1178 140.027 14.6235C140.39 15.1291 140.571 15.8099 140.571 16.6672C140.571 17.4443 140.369 18.1064 139.965 18.6508C139.561 19.1952 138.938 19.5907 138.099 19.836C138.632 19.9211 139.055 20.0813 139.367 20.3128C139.678 20.5456 139.927 20.8622 140.113 21.264C140.299 21.6657 140.469 22.16 140.625 22.747L141.425 25.5666H138.396L137.884 23.3627C137.758 22.8121 137.619 22.3665 137.466 22.0261C137.313 21.687 137.107 21.4367 136.847 21.2777C136.586 21.1188 136.222 21.0387 135.754 21.0387H134.128V25.5666H131.242H131.241ZM134.127 18.6145H135.879C136.25 18.6145 136.564 18.5557 136.818 18.4393C137.073 18.3229 137.267 18.1502 137.398 17.9199C137.53 17.6896 137.595 17.4106 137.595 17.0789C137.595 16.5896 137.448 16.2279 137.154 15.9951C136.86 15.7623 136.495 15.6459 136.058 15.6459H134.125V18.6133L134.127 18.6145Z" fill="white"/>
<path d="M148.237 25.7318C147.009 25.7318 145.946 25.4715 145.047 24.9509C144.148 24.4303 143.455 23.6956 142.966 22.747C142.478 21.7984 142.234 20.6808 142.234 19.3942C142.234 18.1077 142.478 16.98 142.966 16.0276C143.455 15.0753 144.148 14.3394 145.047 13.8187C145.946 13.2981 147.009 13.0378 148.237 13.0378C148.861 13.0378 149.478 13.1216 150.089 13.2906C150.7 13.4596 151.262 13.7199 151.774 14.0715C152.286 14.4232 152.71 14.8738 153.046 15.4219C153.381 15.9701 153.584 16.6209 153.657 17.3743H150.682C150.64 16.9951 150.515 16.6659 150.308 16.3868C150.101 16.109 149.82 15.8925 149.463 15.7398C149.107 15.5871 148.677 15.5095 148.174 15.5095C147.455 15.5095 146.878 15.6922 146.443 16.0564C146.009 16.4206 145.693 16.8974 145.495 17.4844C145.298 18.0726 145.199 18.7096 145.199 19.3955C145.199 20.0813 145.299 20.712 145.5 21.3065C145.701 21.901 146.023 22.3778 146.467 22.7395C146.91 23.1012 147.5 23.2814 148.237 23.2814C148.741 23.2814 149.179 23.1975 149.554 23.0286C149.929 22.8609 150.228 22.6256 150.453 22.3265C150.677 22.0261 150.814 21.677 150.862 21.279H148.264V18.9374H153.783V20.3153C153.783 21.3866 153.566 22.3302 153.131 23.145C152.697 23.9597 152.067 24.5942 151.244 25.051C150.42 25.5078 149.418 25.7356 148.237 25.7356V25.7318Z" fill="white"/>
<path d="M158.205 25.5666V21.075L154.125 13.203H157.342L159.679 18.3379L162.034 13.203H165.251L161.17 21.075V25.5666H158.204H158.205Z" fill="white"/>
<path d="M175.794 25.7318C174.531 25.7318 173.454 25.4728 172.567 24.9559C171.681 24.439 171.006 23.7069 170.545 22.7608C170.084 21.8146 169.853 20.692 169.853 19.3942C169.853 18.0964 170.084 16.9638 170.545 16.0139C171.007 15.0652 171.681 14.3319 172.567 13.8137C173.454 13.2969 174.529 13.0378 175.794 13.0378C177.059 13.0378 178.132 13.2969 179.017 13.8137C179.901 14.3306 180.573 15.064 181.035 16.0139C181.497 16.9625 181.727 18.0901 181.727 19.3942C181.727 20.6983 181.497 21.8146 181.035 22.7608C180.573 23.7069 179.901 24.439 179.017 24.9559C178.132 25.4728 177.058 25.7318 175.794 25.7318ZM175.794 23.2701C176.507 23.2701 177.08 23.0924 177.511 22.737C177.943 22.3815 178.257 21.911 178.456 21.3228C178.653 20.7346 178.752 20.0925 178.752 19.3942C178.752 18.6959 178.653 18.0351 178.456 17.4469C178.258 16.8587 177.944 16.3893 177.511 16.0364C177.08 15.6847 176.507 15.5083 175.794 15.5083C175.082 15.5083 174.499 15.6847 174.064 16.0364C173.629 16.3881 173.314 16.8587 173.12 17.4469C172.925 18.0351 172.828 18.6833 172.828 19.3942C172.828 20.1051 172.925 20.7346 173.12 21.3228C173.314 21.911 173.629 22.3828 174.064 22.737C174.499 23.0924 175.075 23.2701 175.794 23.2701Z" fill="white"/>
<path d="M183.993 25.5666V13.2043H188.891C189.706 13.2043 190.452 13.3469 191.129 13.631C191.806 13.9151 192.349 14.3581 192.755 14.9576C193.162 15.5571 193.366 16.3293 193.366 17.2717C193.366 18.214 193.163 18.9875 192.755 19.5907C192.347 20.1939 191.806 20.6382 191.129 20.9223C190.452 21.2076 189.706 21.3491 188.891 21.3491H186.878V25.5654H183.993V25.5666ZM186.877 19H188.611C189.139 19 189.566 18.8548 189.896 18.5632C190.225 18.2728 190.39 17.8423 190.39 17.2729C190.39 16.7035 190.221 16.2792 189.882 16.0014C189.544 15.7223 189.119 15.5834 188.611 15.5834H186.877V19Z" fill="white"/>
<path d="M195.344 25.5666V13.2043H203.622V15.6472H198.228V18.0989H203.082V20.4505H198.228V23.1237H203.622V25.5666H195.344Z" fill="white"/>
<path d="M206.021 25.5666V13.2043H211.162C211.971 13.2043 212.691 13.3144 213.319 13.5347C213.948 13.7549 214.444 14.1178 214.807 14.6235C215.169 15.1291 215.351 15.8099 215.351 16.6672C215.351 17.4443 215.149 18.1064 214.745 18.6508C214.34 19.1952 213.718 19.5907 212.879 19.836C213.412 19.9211 213.835 20.0813 214.147 20.3128C214.458 20.5456 214.707 20.8622 214.893 21.264C215.079 21.6657 215.249 22.16 215.405 22.747L216.204 25.5666H213.176L212.664 23.3627C212.538 22.8121 212.398 22.3665 212.246 22.0261C212.093 21.687 211.886 21.4367 211.626 21.2777C211.367 21.1188 211.002 21.0387 210.534 21.0387H208.908V25.5666H206.022H206.021ZM208.906 18.6145H210.659C211.03 18.6145 211.344 18.5557 211.598 18.4393C211.853 18.3229 212.046 18.1502 212.178 17.9199C212.309 17.6896 212.376 17.4106 212.376 17.0789C212.376 16.5896 212.229 16.2279 211.935 15.9951C211.641 15.7623 211.276 15.6459 210.839 15.6459H208.906V18.6133V18.6145Z" fill="white"/>
<path d="M216.502 25.5666L220.78 13.2043H223.809L228.132 25.5666H225.112L224.357 23.1512H220.25L219.495 25.5666H216.502ZM220.923 20.6983H223.674L222.299 16.124L220.923 20.6983Z" fill="white"/>
<path d="M230.541 25.5666V15.666H227.386V13.2043H236.562V15.666H233.435V25.5666H230.541Z" fill="white"/>
<path d="M238.118 25.5666V13.2043H241.003V25.5666H238.118Z" fill="white"/>
<path d="M249.182 25.7318C247.918 25.7318 246.841 25.4728 245.955 24.9559C245.068 24.439 244.394 23.7069 243.933 22.7608C243.471 21.8146 243.241 20.692 243.241 19.3942C243.241 18.0964 243.471 16.9638 243.933 16.0139C244.394 15.0652 245.068 14.3319 245.955 13.8137C246.841 13.2969 247.917 13.0378 249.182 13.0378C250.447 13.0378 251.52 13.2969 252.404 13.8137C253.288 14.3306 253.96 15.064 254.422 16.0139C254.884 16.9625 255.114 18.0901 255.114 19.3942C255.114 20.6983 254.884 21.8146 254.422 22.7608C253.96 23.7069 253.288 24.439 252.404 24.9559C251.52 25.4728 250.446 25.7318 249.182 25.7318ZM249.182 23.2701C249.894 23.2701 250.468 23.0924 250.899 22.737C251.33 22.3815 251.645 21.911 251.843 21.3228C252.04 20.7346 252.139 20.0925 252.139 19.3942C252.139 18.6959 252.04 18.0351 251.843 17.4469C251.645 16.8587 251.331 16.3893 250.899 16.0364C250.468 15.6847 249.896 15.5083 249.182 15.5083C248.468 15.5083 247.886 15.6847 247.451 16.0364C247.016 16.3881 246.702 16.8587 246.507 17.4469C246.312 18.0351 246.214 18.6833 246.214 19.3942C246.214 20.1051 246.312 20.7346 246.507 21.3228C246.702 21.911 247.016 22.3828 247.451 22.737C247.886 23.0912 248.463 23.2701 249.182 23.2701Z" fill="white"/>
<path d="M257.38 25.5666V13.2043H260.184L265.317 20.9285V13.2043H268.041V25.5666H265.228L260.078 17.7772V25.5666H257.381H257.38Z" fill="white"/>
<path d="M275.077 25.7318C274.136 25.7318 273.291 25.5992 272.542 25.3326C271.792 25.066 271.198 24.6418 270.757 24.0598C270.316 23.4779 270.097 22.7157 270.097 21.7733H273.063C273.087 22.1713 273.186 22.4879 273.36 22.7245C273.534 22.9597 273.77 23.1287 274.07 23.2301C274.37 23.3314 274.717 23.3815 275.112 23.3815C275.508 23.3815 275.848 23.3389 276.132 23.2526C276.416 23.1675 276.636 23.0348 276.789 22.8571C276.942 22.6794 277.018 22.4566 277.018 22.1863C277.018 21.8985 276.947 21.6632 276.807 21.4792C276.666 21.2952 276.412 21.1238 276.043 20.9648C275.674 20.8059 275.145 20.6219 274.457 20.4142C273.654 20.1751 272.943 19.9073 272.327 19.6107C271.71 19.3141 271.225 18.9261 270.871 18.4481C270.517 17.97 270.341 17.3392 270.341 16.5558C270.341 15.7173 270.544 15.0402 270.952 14.5258C271.36 14.0115 271.911 13.6385 272.605 13.4057C273.3 13.173 274.088 13.0566 274.969 13.0566C275.849 13.0566 276.6 13.1842 277.311 13.4383C278.021 13.6923 278.587 14.0853 279.009 14.6184C279.432 15.1516 279.642 15.8337 279.642 16.6672H276.676C276.676 16.2079 276.505 15.87 276.164 15.6522C275.822 15.4344 275.418 15.3256 274.951 15.3256C274.513 15.3256 274.131 15.4031 273.804 15.5596C273.477 15.716 273.314 15.9751 273.314 16.3355C273.314 16.5383 273.383 16.7197 273.521 16.8824C273.658 17.0451 273.922 17.2116 274.308 17.383C274.693 17.5545 275.259 17.7572 276.001 17.9888C276.912 18.2704 277.663 18.5657 278.252 18.8748C278.843 19.1839 279.281 19.5819 279.569 20.0688C279.857 20.5556 280 21.2001 280 22.0023C280 22.9022 279.784 23.6268 279.353 24.1749C278.922 24.7231 278.334 25.1198 277.591 25.3639C276.848 25.6092 276.009 25.7318 275.074 25.7318H275.077Z" fill="white"/>
<path d="M87.5221 38.9327C86.911 38.9327 86.3843 38.7975 85.941 38.526C85.4989 38.2544 85.1584 37.8739 84.9221 37.3846C84.6845 36.894 84.5657 36.3171 84.5657 35.65C84.5657 34.983 84.6845 34.4048 84.9221 33.9117C85.1596 33.4186 85.4989 33.0369 85.941 32.7653C86.3831 32.4937 86.9097 32.3585 87.5221 32.3585C87.9936 32.3585 88.4296 32.4449 88.8301 32.6176C89.2305 32.7903 89.5551 33.0456 89.8049 33.3835C90.0548 33.7214 90.1919 34.1369 90.2164 34.6325H88.8754C88.8472 34.3722 88.7725 34.157 88.6525 33.9855C88.5312 33.814 88.3745 33.6864 88.1822 33.6C87.9899 33.5137 87.7695 33.4711 87.5209 33.4711C87.1363 33.4711 86.8265 33.5725 86.5925 33.7753C86.3586 33.978 86.1872 34.2446 86.0782 34.5725C85.9692 34.9004 85.9153 35.2595 85.9153 35.65C85.9153 36.0405 85.9692 36.3947 86.0782 36.7251C86.1872 37.0554 86.3586 37.3195 86.5925 37.5198C86.8265 37.72 87.1363 37.8189 87.5209 37.8189C87.9054 37.8189 88.2434 37.705 88.4773 37.4785C88.7113 37.2519 88.8472 36.9291 88.8852 36.511H90.2262C90.1895 37.0342 90.0584 37.476 89.8331 37.8364C89.6077 38.1968 89.3003 38.4684 88.9097 38.6549C88.519 38.8401 88.0561 38.9327 87.5221 38.9327Z" fill="white"/>
<path d="M98.6754 38.9327C98.0386 38.9327 97.5009 38.7976 97.0625 38.526C96.6228 38.2544 96.2897 37.874 96.0619 37.3846C95.8341 36.894 95.7202 36.3171 95.7202 35.65C95.7202 34.983 95.8341 34.4048 96.0619 33.9117C96.2897 33.4186 96.624 33.0369 97.0625 32.7653C97.5021 32.4937 98.0398 32.3586 98.6754 32.3586C99.311 32.3586 99.8487 32.4937 100.286 32.7653C100.723 33.0369 101.056 33.4186 101.284 33.9117C101.512 34.4048 101.626 34.9842 101.626 35.65C101.626 36.3158 101.512 36.894 101.284 37.3846C101.056 37.874 100.723 38.2557 100.286 38.526C99.8487 38.7976 99.311 38.9327 98.6754 38.9327ZM98.6754 37.8201C99.0636 37.8201 99.3747 37.7213 99.6086 37.5248C99.8425 37.3283 100.014 37.0655 100.121 36.7351C100.228 36.4059 100.281 36.0443 100.281 35.65C100.281 35.2558 100.227 34.8854 100.121 34.5562C100.014 34.2258 99.8425 33.963 99.6086 33.7665C99.3747 33.57 99.0636 33.4711 98.6754 33.4711C98.2872 33.4711 97.9847 33.57 97.7495 33.7665C97.5132 33.963 97.3417 34.2258 97.2327 34.5562C97.1237 34.8854 97.0698 35.2508 97.0698 35.65C97.0698 36.0493 97.1237 36.4047 97.2327 36.7351C97.3417 37.0655 97.5132 37.3283 97.7495 37.5248C97.9859 37.7213 98.2945 37.8201 98.6754 37.8201Z" fill="white"/>
<path d="M107.418 38.8476V32.4449H108.703L111.585 36.7589V32.4449H112.814V38.8476H111.53L108.643 34.5049V38.8476H107.418Z" fill="white"/>
<path d="M120.96 38.9327C120.491 38.9327 120.065 38.8639 119.683 38.7262C119.299 38.5886 118.996 38.3683 118.773 38.0679C118.55 37.7663 118.437 37.3734 118.437 36.8878H119.773C119.786 37.1356 119.844 37.3296 119.948 37.471C120.053 37.6124 120.193 37.7125 120.372 37.7726C120.551 37.8327 120.754 37.8627 120.984 37.8627C121.215 37.8627 121.398 37.8364 121.566 37.7826C121.734 37.7288 121.865 37.6462 121.959 37.5348C122.054 37.4234 122.101 37.2808 122.101 37.1068C122.101 36.9328 122.062 36.7989 121.983 36.6888C121.903 36.5774 121.761 36.4773 121.556 36.3872C121.352 36.2971 121.063 36.1995 120.691 36.0943C120.259 35.9679 119.886 35.8277 119.571 35.6751C119.256 35.5224 119.013 35.3259 118.84 35.0856C118.667 34.8453 118.582 34.5312 118.582 34.1432C118.582 33.7277 118.68 33.3898 118.877 33.1282C119.074 32.8667 119.346 32.6739 119.694 32.5501C120.041 32.4262 120.438 32.3648 120.885 32.3648C121.332 32.3648 121.716 32.4312 122.072 32.5651C122.428 32.6977 122.714 32.9017 122.928 33.1746C123.142 33.4474 123.249 33.7953 123.249 34.2171H121.908C121.912 33.9442 121.811 33.7402 121.61 33.6063C121.409 33.4724 121.167 33.4036 120.884 33.4036C120.601 33.4036 120.377 33.4574 120.192 33.5625C120.007 33.6676 119.915 33.8328 119.915 34.0544C119.915 34.1808 119.955 34.2934 120.032 34.3898C120.109 34.4861 120.253 34.5812 120.465 34.6726C120.676 34.7652 120.982 34.8691 121.383 34.9867C121.858 35.1294 122.246 35.2796 122.548 35.436C122.851 35.5925 123.075 35.7965 123.221 36.0455C123.367 36.2946 123.44 36.6225 123.44 37.0279C123.44 37.481 123.331 37.8477 123.112 38.1268C122.893 38.4059 122.597 38.6098 122.225 38.74C121.853 38.8702 121.43 38.9352 120.959 38.9352L120.96 38.9327Z" fill="white"/>
<path d="M131.583 38.9853C130.974 38.9853 130.477 38.8802 130.089 38.6687C129.7 38.4584 129.414 38.1518 129.23 37.75C129.045 37.3483 128.953 36.8665 128.953 36.3008V32.4424H130.294V36.267C130.294 36.7939 130.399 37.1919 130.607 37.4609C130.815 37.73 131.142 37.8652 131.589 37.8652C132.036 37.8652 132.37 37.73 132.574 37.4609C132.777 37.1919 132.879 36.7939 132.879 36.267V32.4424H134.223V36.3008C134.223 36.8652 134.131 37.3483 133.949 37.75C133.765 38.1518 133.48 38.4571 133.09 38.6687C132.701 38.8789 132.199 38.9853 131.584 38.9853H131.583Z" fill="white"/>
<path d="M140.167 38.8476V32.4449H141.475V37.6725H144.124V38.8476H140.167Z" fill="white"/>
<path d="M150.12 38.8476V33.5575H148.453V32.4449H153.098V33.5575H151.432V38.8476H150.119H150.12Z" fill="white"/>
<path d="M158.541 38.8476V32.4449H159.849V38.8476H158.541Z" fill="white"/>
<path d="M165.855 38.8476V32.4449H167.139L170.021 36.7589V32.4449H171.25V38.8476H169.965L167.078 34.5049V38.8476H165.854H165.855Z" fill="white"/>
<path d="M180.029 38.9327C179.408 38.9327 178.874 38.7976 178.429 38.526C177.982 38.2544 177.64 37.8727 177.402 37.3821C177.165 36.8903 177.046 36.3133 177.046 35.65C177.046 34.9867 177.165 34.4048 177.402 33.9117C177.64 33.4186 177.982 33.0369 178.429 32.7653C178.876 32.4937 179.41 32.3586 180.029 32.3586C180.339 32.3586 180.644 32.4011 180.944 32.4875C181.243 32.5726 181.519 32.7052 181.768 32.8842C182.018 33.0632 182.224 33.2909 182.386 33.5663C182.547 33.8416 182.644 34.1682 182.678 34.5462H181.337C181.315 34.3372 181.249 34.152 181.138 33.9893C181.026 33.8278 180.876 33.7002 180.686 33.6088C180.497 33.5162 180.268 33.4711 180.001 33.4711C179.617 33.4711 179.306 33.5713 179.07 33.7728C178.834 33.9743 178.663 34.2383 178.554 34.5675C178.445 34.8954 178.391 35.2558 178.391 35.65C178.391 36.0443 178.445 36.3997 178.554 36.7301C178.663 37.0605 178.837 37.3245 179.078 37.5248C179.318 37.725 179.635 37.8239 180.029 37.8239C180.321 37.8239 180.569 37.7688 180.774 37.6599C180.979 37.5511 181.139 37.3996 181.254 37.2057C181.369 37.0129 181.435 36.7889 181.455 36.5348H180.062V35.4698H182.771V36.1218C182.771 36.6763 182.665 37.1656 182.453 37.5874C182.24 38.0091 181.93 38.3383 181.522 38.576C181.114 38.8138 180.617 38.9327 180.031 38.9327H180.029Z" fill="white"/>
<path d="M41.0336 6.91376C51.0934 6.91376 59.277 15.0688 59.277 25.092C59.277 35.1151 51.0927 43.2702 41.0336 43.2702C30.9746 43.2702 22.7903 35.1151 22.7903 25.092C22.7903 15.0688 30.9746 6.91376 41.0336 6.91376ZM41.0336 0C27.1258 0 15.8511 11.2344 15.8511 25.0926C15.8511 38.9508 27.1258 50.1853 41.0336 50.1853C54.9415 50.1853 66.2162 38.9508 66.2162 25.0926C66.2162 11.2344 54.9415 0 41.0336 0Z" fill="white"/>
<path d="M82.0667 12.0734C82.0667 12.0734 70.9391 9.05613 53.6144 18.3311C36.3608 27.5685 14.7765 34.8622 0 25.8607C0 25.8607 14.1947 40.3866 39.3074 29.378C39.3074 29.378 51.411 23.5589 57.5693 20.2278C57.5693 20.2278 49.9675 24.9686 43.1378 29.0315C36.7988 32.8018 22.9758 39.3158 8.37867 33.9496C8.37867 33.9496 23.0696 46.516 48.5958 30.2455C64.7665 19.9379 68.1157 15.0034 82.0667 12.0734Z" fill="white"/>
</svg>
