<svg width="359" height="221" viewBox="0 0 359 221" fill="none" xmlns="http://www.w3.org/2000/svg">
<path opacity="0.1" d="M179.501 30.3526C223.508 30.3526 259.307 66.1547 259.307 110.158C259.307 154.161 223.505 189.963 179.501 189.963C135.498 189.963 99.696 154.161 99.696 110.158C99.696 66.1547 135.498 30.3526 179.501 30.3526ZM179.501 0C118.662 0 69.3405 49.3211 69.3405 110.161C69.3405 171.001 118.662 220.322 179.501 220.322C240.341 220.322 289.662 171.001 289.662 110.161C289.662 49.3211 240.341 0 179.501 0Z" fill="white"/>
<path opacity="0.1" d="M359 53.0044C359 53.0044 310.323 39.7579 234.536 80.4765C159.06 121.03 64.6396 153.051 0 113.533C0 113.533 62.0945 177.304 171.95 128.974C171.95 128.974 224.897 103.427 251.836 88.8035C251.836 88.8035 218.582 109.616 188.706 127.453C160.976 144.005 100.508 172.603 36.6524 149.045C36.6524 149.045 100.918 204.213 212.582 132.783C283.321 87.5309 297.971 65.8676 359 53.0044Z" fill="white"/>
</svg>
